<?xml version="1.0" encoding="UTF-8"?>
<!DOCTYPE svg PUBLIC "-//W3C//DTD SVG 1.1//EN" "http://www.w3.org/Graphics/SVG/1.1/DTD/svg11.dtd">
<!-- Creator: CorelDRAW 2017 -->
<svg xmlns="http://www.w3.org/2000/svg" xml:space="preserve" width="108px" height="116px" version="1.1" style="shape-rendering:geometricPrecision; text-rendering:geometricPrecision; image-rendering:optimizeQuality; fill-rule:evenodd; clip-rule:evenodd"
viewBox="0 0 6.25 6.66"
 xmlns:xlink="http://www.w3.org/1999/xlink">
 <defs>
  <style type="text/css">
   <![CDATA[
    .fil3 {fill:none}
    .fil2 {fill:#FEFEFE}
    .fil1 {fill:#EC268F}
    .fil0 {fill:#A8CF45}
   ]]>
  </style>
 </defs>
 <g id="Capa_x0020_1">
  <metadata id="CorelCorpID_0Corel-Layer"/>
  <g id="_2002064714736">
   <g>
    <path class="fil0" d="M1.27 5.52c-0.21,0.08 -0.25,-0.02 -0.12,-0.14 0.97,-0.88 1.86,-1.66 2.39,-3.72 0.11,-0.42 0.24,-0.51 0.39,-0.84 0.04,-0.09 0.07,-0.18 0.1,-0.28 0.01,-0.12 -0.08,-0.14 -0.17,-0.08 -0.02,-0.24 0.19,-0.41 0.24,-0.14 0.56,2.25 -0.24,4.45 -2.83,5.2z"/>
    <path class="fil1" d="M3.21 4.09c-0.41,-1.67 -1.14,-2.83 -2.13,-3.59 -0.09,-0.1 -0.04,-0.17 0.09,-0.12 1.74,0.56 2.6,1.71 2.29,3.67 -0.05,0.24 -0.18,0.24 -0.25,0.04z"/>
   </g>
   <path class="fil2" d="M5.66 6.6c0.02,-0.02 0.09,-0.11 0.13,-0.18 0.04,-0.07 0.08,-0.2 0.2,-0.21 0.2,-0.01 0.23,0.26 0.25,0.36 0.02,0.06 0,0.08 -0.03,0.07 -0.03,-0.01 -0.07,-0.05 -0.08,-0.07 -0.01,-0.02 -0.02,-0.01 -0.02,0.02 0,0.04 -0.01,0.07 -0.04,0.06 -0.03,-0.01 -0.04,-0.05 -0.06,-0.08 -0.02,-0.03 -0.06,-0.02 -0.08,0.01 -0.01,0.04 -0.04,0.08 -0.06,0.08 -0.03,0 -0.03,-0.04 -0.05,-0.07 -0.02,-0.03 0.01,-0.01 -0.06,0.02 -0.01,0.01 -0.01,0.01 -0.02,0.02 -0.04,0.02 -0.12,0.04 -0.08,-0.03z"/>
   <rect class="fil3" width="5.76" height="5.76"/>
  </g>
 </g>
</svg>
