<?xml version="1.0" encoding="UTF-8"?>
<!DOCTYPE svg PUBLIC "-//W3C//DTD SVG 1.1//EN" "http://www.w3.org/Graphics/SVG/1.1/DTD/svg11.dtd">
<!-- Creator: CorelDRAW 2017 -->
<svg xmlns="http://www.w3.org/2000/svg" xml:space="preserve" width="155px" height="55px" version="1.1" style="shape-rendering:geometricPrecision; text-rendering:geometricPrecision; image-rendering:optimizeQuality; fill-rule:evenodd; clip-rule:evenodd"
viewBox="0 0 59.32 21.05"
 xmlns:xlink="http://www.w3.org/1999/xlink">
 <defs>
  <style type="text/css">
   <![CDATA[
    .fil0 {fill:none}
    .fil4 {fill:#FEFEFE}
    .fil1 {fill:#373435}
    .fil3 {fill:#EC268F}
    .fil2 {fill:#A8CF45}
    .fil5 {fill:url(#id0)}
   ]]>
  </style>
  <radialGradient id="id0" gradientUnits="userSpaceOnUse" gradientTransform="matrix(1.30772 0.0851244 -0.0650976 1.00006 -16 -4)" cx="52.83" cy="1.76" r="1.51" fx="52.83" fy="1.76">
   <stop offset="0" style="stop-opacity:1; stop-color:#FEFEFE"/>
   <stop offset="1" style="stop-opacity:1; stop-color:#00AFEF"/>
  </radialGradient>
 </defs>
 <g id="Capa_x0020_1">
  <metadata id="CorelCorpID_0Corel-Layer"/>
  <rect class="fil0" width="59.32" height="21.05"/>
  <g id="_2001995899648">
   <path class="fil1" d="M8.73 14.16c-3.24,0 -4.85,-0.96 -4.85,-2.88 0,-0.99 0.43,-1.83 1.31,-2.51 0.75,-0.57 1.71,-0.96 2.88,-1.16 0.15,0 0.31,-0.04 0.47,-0.13 0.06,-0.05 0.1,-0.18 0.1,-0.4 0,-0.26 -0.17,-0.48 -0.51,-0.66 -0.28,-0.15 -0.58,-0.22 -0.9,-0.22 -0.41,0 -0.74,0.11 -0.98,0.34 -0.16,0.16 -0.35,0.44 -0.55,0.84 -0.07,0.05 -0.17,0.09 -0.28,0.13 -0.22,-0.05 -0.42,-0.13 -0.61,-0.23 -0.48,-0.33 -0.72,-0.75 -0.72,-1.27 0,-0.39 0.19,-0.74 0.56,-1.08 0.31,-0.27 0.69,-0.49 1.16,-0.64 0.46,-0.15 0.98,-0.23 1.56,-0.23 1.43,0 2.5,0.45 3.22,1.35 0.38,0.47 0.59,1.06 0.64,1.78l0.1 1.43c0.05,0.76 0.15,1.62 0.32,2.59 0.14,0.86 0.2,1.41 0.2,1.65 0,0.52 -0.2,0.87 -0.62,1.04 -0.42,0.18 -1.25,0.26 -2.5,0.26zm0.07 -4.38c0,-0.2 -0.17,-0.3 -0.51,-0.3 -0.45,0 -0.86,0.14 -1.21,0.42 -0.37,0.29 -0.56,0.63 -0.56,1.03 0,0.35 0.19,0.63 0.57,0.84 0.31,0.16 0.68,0.25 1.1,0.26 0.23,-0.03 0.39,-0.09 0.48,-0.18 0.09,-0.08 0.13,-0.24 0.13,-0.46l0 -1.61zm7.19 -7.54c-0.04,0.16 -0.11,0.46 -0.19,0.92l-0.22 1.99c0,0.39 -0.02,0.79 -0.05,1.21 -0.05,0.63 -0.07,0.97 -0.07,1.03 0,1.72 0.14,3.41 0.42,5.08 0.09,0.54 0.17,0.96 0.23,1.25l0 0.11c0,0.22 -0.15,0.33 -0.46,0.33l-2.07 0c-0.25,0 -0.43,-0.24 -0.52,-0.73 -0.15,-0.77 -0.23,-2.73 -0.23,-5.88 0,-3.31 0.16,-5.36 0.46,-6.15 0.07,-0.25 0.24,-0.37 0.5,-0.37l1.76 0c0.39,0 0.58,0.16 0.58,0.48l0 0.14c-0.02,0.1 -0.06,0.29 -0.14,0.59zm5.6 11.92c-3.24,0 -4.85,-0.96 -4.85,-2.88 0,-0.99 0.44,-1.83 1.31,-2.51 0.75,-0.57 1.71,-0.96 2.88,-1.16 0.15,0 0.31,-0.04 0.47,-0.13 0.06,-0.05 0.1,-0.18 0.1,-0.4 0,-0.26 -0.17,-0.48 -0.51,-0.66 -0.28,-0.15 -0.58,-0.22 -0.9,-0.22 -0.41,0 -0.74,0.11 -0.98,0.34 -0.16,0.16 -0.35,0.44 -0.55,0.84 -0.07,0.05 -0.17,0.09 -0.28,0.13 -0.22,-0.05 -0.42,-0.13 -0.61,-0.23 -0.48,-0.33 -0.71,-0.75 -0.71,-1.27 0,-0.39 0.18,-0.74 0.55,-1.08 0.31,-0.27 0.69,-0.49 1.16,-0.64 0.46,-0.15 0.98,-0.23 1.56,-0.23 1.43,0 2.5,0.45 3.22,1.35 0.38,0.47 0.59,1.06 0.64,1.78l0.1 1.43c0.05,0.76 0.15,1.62 0.32,2.59 0.14,0.86 0.21,1.41 0.21,1.65 0,0.52 -0.21,0.87 -0.63,1.04 -0.42,0.18 -1.25,0.26 -2.5,0.26zm0.07 -4.38c0,-0.2 -0.17,-0.3 -0.51,-0.3 -0.45,0 -0.85,0.14 -1.21,0.42 -0.37,0.29 -0.56,0.63 -0.56,1.03 0,0.35 0.19,0.63 0.57,0.84 0.32,0.16 0.68,0.25 1.1,0.26 0.23,-0.03 0.39,-0.09 0.48,-0.18 0.09,-0.08 0.13,-0.24 0.13,-0.46l0 -1.61zm17.35 4.38c-3.23,0 -4.85,-0.96 -4.85,-2.88 0,-0.99 0.44,-1.83 1.32,-2.51 0.75,-0.57 1.7,-0.98 2.87,-1.16 0.15,-0.02 0.32,-0.03 0.47,-0.13 0.07,-0.04 0.1,-0.18 0.1,-0.4 0,-0.26 -0.17,-0.48 -0.5,-0.66 -0.29,-0.15 -0.59,-0.22 -0.91,-0.22 -0.41,0 -0.73,0.11 -0.98,0.34 -0.16,0.16 -0.35,0.44 -0.54,0.84 -0.08,0.05 -0.18,0.09 -0.29,0.13 -0.21,-0.05 -0.42,-0.11 -0.6,-0.23 -0.49,-0.31 -0.72,-0.75 -0.72,-1.27 0,-0.39 0.18,-0.74 0.55,-1.08 0.31,-0.27 0.7,-0.49 1.16,-0.64 0.46,-0.15 0.98,-0.23 1.56,-0.23 1.43,0 2.5,0.45 3.23,1.35 0.37,0.47 0.59,1.06 0.64,1.78l0.09 1.43c0.05,0.76 0.16,1.62 0.32,2.59 0.14,0.86 0.21,1.41 0.21,1.65 0,0.52 -0.21,0.86 -0.63,1.04 -0.41,0.18 -1.25,0.26 -2.5,0.26zm0.07 -4.38c0,-0.2 -0.17,-0.3 -0.51,-0.3 -0.45,0 -0.85,0.14 -1.21,0.42 -0.37,0.29 -0.56,0.63 -0.56,1.03 0,0.35 0.19,0.63 0.57,0.84 0.32,0.17 0.68,0.27 1.1,0.26 0.23,-0.01 0.39,-0.08 0.48,-0.18 0.09,-0.08 0.13,-0.24 0.13,-0.46l0 -1.61zm9.6 -2.43c-0.25,0.15 -0.5,0.23 -0.72,0.24 -0.14,-0.1 -0.23,-0.25 -0.27,-0.46 -0.04,-0.2 -0.08,-0.33 -0.13,-0.38 -0.1,-0.12 -0.34,-0.17 -0.68,-0.17 -0.36,0 -0.63,0.14 -0.82,0.43 -0.21,0.33 -0.36,0.72 -0.4,1.16 -0.04,0.42 -0.05,0.83 -0.08,1.25 -0.01,0.13 0,0.42 0.05,0.86 0.02,0.22 0.06,0.67 0.17,1.35 0.05,0.33 0.19,0.91 0.33,1.75l0.02 0.15 0.02 0.17c0.03,0.31 -0.22,0.46 -0.75,0.46l-1.56 0c-0.21,0 -0.36,-0.05 -0.47,-0.18 -0.22,-0.24 -0.34,-1.09 -0.37,-2.57l-0.04 -1.55 0 -1.93 -0.03 -1.63 0.11 -1.56c0.02,-0.31 0.24,-0.45 0.48,-0.45l1.58 0c0.19,0 0.34,0.06 0.45,0.18 0.05,0.16 0.1,0.34 0.17,0.52 0.02,0.02 0.04,0.03 0.07,0.03 0.11,0 0.28,-0.11 0.55,-0.28l0.75 -0.45c0.25,-0.15 0.53,-0.18 0.82,-0.18 0.4,0 0.75,0.1 1.07,0.32 0.31,0.22 0.48,0.28 0.54,0.62 0.16,1.06 0.25,1.65 -0.86,2.3zm5.44 6.08l0.01 0c-0.53,0.36 -1.14,0.64 -1.83,0.85l-0.16 0.05 -0.16 0.03 -0.14 0.02c-0.32,0.03 -0.53,-0.26 -0.65,-0.79 -0.09,-0.43 -0.18,-1.04 -0.26,-1.82 -0.1,-0.9 -0.14,-1.51 -0.13,-1.83l0.09 -1.6 0.05 -1.58c0.02,-0.41 -0.11,-0.61 -0.36,-0.61 -0.04,0 -0.27,0.07 -0.67,0.2 -0.25,0 -0.27,0.29 -0.29,-0.1l-0.08 -1.2c-0.02,-0.24 0.62,-0.79 0.99,-0.79 0.22,0 0.38,0.02 0.5,0.06 0.11,-0.03 0.17,-0.07 0.2,-0.11 0.03,-0.07 0.07,-0.31 0.12,-0.72 0.04,-0.3 0.15,-0.53 0.35,-0.67 0.57,-0.37 0.54,-0.58 1.34,-0.69 0.39,-0.06 0.6,0.15 0.6,0.45 0,0.17 0.21,1.17 0.18,1.54 0.03,0.1 0.08,0.17 0.15,0.22l0.24 -0.03 0.4 -0.05c0.55,-0.07 0.83,0.37 0.83,1.12 0,0.59 -0.22,0.91 -0.67,0.96l-0.34 -0.09 -0.28 -0.07c-0.34,0.01 -0.56,0.28 -0.66,0.8 -0.05,0.24 -0.07,0.71 -0.07,1.41 0,0.88 0.08,1.76 0.26,2.64 0.17,0.88 0.35,1.47 0.54,1.79 0.06,0.1 0.09,0.23 0.09,0.39 -0.07,0.11 -0.14,0.18 -0.19,0.22z"/>
   <path class="fil2" d="M22.55 19.92c-0.73,0.28 -0.88,-0.07 -0.42,-0.51 3.42,-3.1 6.57,-5.84 8.44,-13.11 0.38,-1.49 0.85,-1.8 1.4,-2.99 0.13,-0.29 0.25,-0.62 0.34,-0.98 0.04,-0.42 -0.3,-0.47 -0.62,-0.28 -0.07,-0.85 0.67,-1.44 0.87,-0.5 1.97,7.96 -0.85,15.71 -10.01,18.37z"/>
   <path class="fil3" d="M29.42 14.88c-1.47,-5.91 -4.03,-10 -7.54,-12.7 -0.32,-0.32 -0.11,-0.57 0.35,-0.4 6.11,1.97 9.16,6.04 8.07,12.95 -0.18,0.85 -0.64,0.86 -0.88,0.15z"/>
   <path class="fil4" d="M50.61 4.12c0.12,-0.13 0.6,-0.78 0.87,-1.25 0.28,-0.47 0.49,-1.28 1.34,-1.34 1.29,-0.11 1.49,1.72 1.64,2.35 0.1,0.41 0.02,0.57 -0.18,0.49 -0.21,-0.09 -0.48,-0.36 -0.54,-0.48 -0.06,-0.12 -0.12,-0.1 -0.12,0.15 0,0.24 -0.06,0.43 -0.27,0.39 -0.21,-0.04 -0.27,-0.34 -0.41,-0.53 -0.13,-0.19 -0.4,-0.17 -0.52,0.08 -0.12,0.24 -0.27,0.51 -0.43,0.5 -0.16,-0.01 -0.18,-0.26 -0.31,-0.45 -0.14,-0.19 0.02,-0.09 -0.38,0.13 -0.08,0.04 -0.13,0.08 -0.17,0.1 -0.25,0.15 -0.8,0.28 -0.52,-0.14z"/>
   <path class="fil5" d="M50.57 4.03c0.11,-0.13 0.59,-0.78 0.87,-1.25 0.27,-0.47 0.49,-1.27 1.33,-1.34 1.3,-0.1 1.5,1.72 1.65,2.36 0.1,0.4 0.01,0.56 -0.19,0.48 -0.2,-0.08 -0.47,-0.36 -0.53,-0.48 -0.07,-0.12 -0.13,-0.09 -0.13,0.15 0.01,0.24 -0.06,0.43 -0.26,0.39 -0.21,-0.04 -0.28,-0.34 -0.41,-0.53 -0.14,-0.19 -0.4,-0.17 -0.52,0.08 -0.12,0.24 -0.27,0.51 -0.44,0.5 -0.16,-0.01 -0.17,-0.25 -0.31,-0.44 -0.13,-0.2 0.03,-0.1 -0.38,0.13 -0.07,0.04 -0.12,0.07 -0.17,0.09 -0.24,0.15 -0.8,0.28 -0.51,-0.14z"/>
  </g>
 </g>
</svg>
